<mxfile host="app.diagrams.net" modified="2024-03-26T05:05:21.985Z" agent="Mozilla/5.0 (Windows NT 10.0; Win64; x64) AppleWebKit/537.36 (KHTML, like Gecko) Chrome/123.0.0.0 Safari/537.36" etag="7pJbAzs9NLE81o53iBRM" version="24.1.0" type="github">
  <diagram name="Page-1" id="1qkEdXMkKI-1yrRQ7UzB">
    <mxGraphModel dx="1567" dy="591" grid="1" gridSize="10" guides="1" tooltips="1" connect="1" arrows="1" fold="1" page="1" pageScale="1" pageWidth="850" pageHeight="1100" math="0" shadow="0">
      <root>
        <mxCell id="0" />
        <mxCell id="1" parent="0" />
        <mxCell id="x3u99sOY2GqdWA3jhcPP-3" value="" style="edgeStyle=orthogonalEdgeStyle;rounded=0;orthogonalLoop=1;jettySize=auto;html=1;" edge="1" parent="1" source="x3u99sOY2GqdWA3jhcPP-1" target="x3u99sOY2GqdWA3jhcPP-2">
          <mxGeometry relative="1" as="geometry" />
        </mxCell>
        <mxCell id="x3u99sOY2GqdWA3jhcPP-1" value="Start" style="ellipse;whiteSpace=wrap;html=1;" vertex="1" parent="1">
          <mxGeometry x="365" y="80" width="120" height="80" as="geometry" />
        </mxCell>
        <mxCell id="x3u99sOY2GqdWA3jhcPP-5" style="edgeStyle=orthogonalEdgeStyle;rounded=0;orthogonalLoop=1;jettySize=auto;html=1;entryX=0.5;entryY=0;entryDx=0;entryDy=0;" edge="1" parent="1" source="x3u99sOY2GqdWA3jhcPP-2" target="x3u99sOY2GqdWA3jhcPP-4">
          <mxGeometry relative="1" as="geometry" />
        </mxCell>
        <mxCell id="x3u99sOY2GqdWA3jhcPP-2" value="The requestor fills out a template specifying the destination, details (e.g., TO - SAN PABLO - 23DB - 0900)." style="whiteSpace=wrap;html=1;" vertex="1" parent="1">
          <mxGeometry x="325" y="250" width="200" height="100" as="geometry" />
        </mxCell>
        <mxCell id="x3u99sOY2GqdWA3jhcPP-7" value="" style="edgeStyle=orthogonalEdgeStyle;rounded=0;orthogonalLoop=1;jettySize=auto;html=1;" edge="1" parent="1" source="x3u99sOY2GqdWA3jhcPP-4" target="x3u99sOY2GqdWA3jhcPP-6">
          <mxGeometry relative="1" as="geometry" />
        </mxCell>
        <mxCell id="x3u99sOY2GqdWA3jhcPP-4" value="The requestor emails the completed template to Jai (SRP Price)" style="whiteSpace=wrap;html=1;" vertex="1" parent="1">
          <mxGeometry x="325" y="440" width="200" height="100" as="geometry" />
        </mxCell>
        <mxCell id="x3u99sOY2GqdWA3jhcPP-11" style="edgeStyle=orthogonalEdgeStyle;rounded=0;orthogonalLoop=1;jettySize=auto;html=1;entryX=0;entryY=0.5;entryDx=0;entryDy=0;" edge="1" parent="1" source="x3u99sOY2GqdWA3jhcPP-6" target="x3u99sOY2GqdWA3jhcPP-4">
          <mxGeometry relative="1" as="geometry">
            <Array as="points">
              <mxPoint x="230" y="713" />
              <mxPoint x="230" y="490" />
            </Array>
          </mxGeometry>
        </mxCell>
        <mxCell id="x3u99sOY2GqdWA3jhcPP-12" value="NO" style="edgeLabel;html=1;align=center;verticalAlign=middle;resizable=0;points=[];" vertex="1" connectable="0" parent="x3u99sOY2GqdWA3jhcPP-11">
          <mxGeometry x="-0.7607" y="-1" relative="1" as="geometry">
            <mxPoint as="offset" />
          </mxGeometry>
        </mxCell>
        <mxCell id="x3u99sOY2GqdWA3jhcPP-29" style="edgeStyle=orthogonalEdgeStyle;rounded=0;orthogonalLoop=1;jettySize=auto;html=1;entryX=0;entryY=0.5;entryDx=0;entryDy=0;" edge="1" parent="1" source="x3u99sOY2GqdWA3jhcPP-6" target="x3u99sOY2GqdWA3jhcPP-8">
          <mxGeometry relative="1" as="geometry" />
        </mxCell>
        <mxCell id="x3u99sOY2GqdWA3jhcPP-30" value="YES" style="edgeLabel;html=1;align=center;verticalAlign=middle;resizable=0;points=[];" vertex="1" connectable="0" parent="x3u99sOY2GqdWA3jhcPP-29">
          <mxGeometry x="0.0063" y="1" relative="1" as="geometry">
            <mxPoint as="offset" />
          </mxGeometry>
        </mxCell>
        <mxCell id="x3u99sOY2GqdWA3jhcPP-6" value="SRP Price Available?" style="rhombus;whiteSpace=wrap;html=1;" vertex="1" parent="1">
          <mxGeometry x="343" y="630" width="165" height="165" as="geometry" />
        </mxCell>
        <mxCell id="x3u99sOY2GqdWA3jhcPP-14" style="edgeStyle=orthogonalEdgeStyle;rounded=0;orthogonalLoop=1;jettySize=auto;html=1;entryX=0.5;entryY=0;entryDx=0;entryDy=0;" edge="1" parent="1" source="x3u99sOY2GqdWA3jhcPP-8" target="x3u99sOY2GqdWA3jhcPP-13">
          <mxGeometry relative="1" as="geometry" />
        </mxCell>
        <mxCell id="x3u99sOY2GqdWA3jhcPP-8" value="Jai sends back a completed ITR template with item codes and DR Price" style="whiteSpace=wrap;html=1;" vertex="1" parent="1">
          <mxGeometry x="610" y="662" width="200" height="100" as="geometry" />
        </mxCell>
        <mxCell id="x3u99sOY2GqdWA3jhcPP-16" style="edgeStyle=orthogonalEdgeStyle;rounded=0;orthogonalLoop=1;jettySize=auto;html=1;entryX=0.5;entryY=0;entryDx=0;entryDy=0;" edge="1" parent="1" source="x3u99sOY2GqdWA3jhcPP-13" target="x3u99sOY2GqdWA3jhcPP-15">
          <mxGeometry relative="1" as="geometry" />
        </mxCell>
        <mxCell id="x3u99sOY2GqdWA3jhcPP-13" value="The requestor creates an Internal Transfer Request (ITR) specifying Warehouse Code and destination (e.g.,&amp;nbsp;FR:&lt;span style=&quot;white-space:pre&quot;&gt;&#x9;&lt;/span&gt;GR010 (MAIN WHSE) BPCODE + IT (TRANSIT))" style="whiteSpace=wrap;html=1;" vertex="1" parent="1">
          <mxGeometry x="610.5" y="862" width="200" height="100" as="geometry" />
        </mxCell>
        <mxCell id="x3u99sOY2GqdWA3jhcPP-18" style="edgeStyle=orthogonalEdgeStyle;rounded=0;orthogonalLoop=1;jettySize=auto;html=1;exitX=0.5;exitY=1;exitDx=0;exitDy=0;entryX=0.5;entryY=0;entryDx=0;entryDy=0;" edge="1" parent="1" source="x3u99sOY2GqdWA3jhcPP-15" target="x3u99sOY2GqdWA3jhcPP-17">
          <mxGeometry relative="1" as="geometry" />
        </mxCell>
        <mxCell id="x3u99sOY2GqdWA3jhcPP-15" value="Jai creates a Delivery Receipt for the requested items." style="whiteSpace=wrap;html=1;" vertex="1" parent="1">
          <mxGeometry x="610" y="1062" width="200" height="100" as="geometry" />
        </mxCell>
        <mxCell id="x3u99sOY2GqdWA3jhcPP-28" style="edgeStyle=orthogonalEdgeStyle;rounded=0;orthogonalLoop=1;jettySize=auto;html=1;entryX=0.5;entryY=0;entryDx=0;entryDy=0;" edge="1" parent="1" source="x3u99sOY2GqdWA3jhcPP-17" target="x3u99sOY2GqdWA3jhcPP-27">
          <mxGeometry relative="1" as="geometry" />
        </mxCell>
        <mxCell id="x3u99sOY2GqdWA3jhcPP-17" value="The requestor checks the delivered items" style="whiteSpace=wrap;html=1;" vertex="1" parent="1">
          <mxGeometry x="610.5" y="1262" width="200" height="100" as="geometry" />
        </mxCell>
        <mxCell id="x3u99sOY2GqdWA3jhcPP-22" style="edgeStyle=orthogonalEdgeStyle;rounded=0;orthogonalLoop=1;jettySize=auto;html=1;exitX=0.5;exitY=1;exitDx=0;exitDy=0;entryX=1;entryY=0.5;entryDx=0;entryDy=0;" edge="1" parent="1" source="x3u99sOY2GqdWA3jhcPP-19" target="x3u99sOY2GqdWA3jhcPP-21">
          <mxGeometry relative="1" as="geometry" />
        </mxCell>
        <mxCell id="x3u99sOY2GqdWA3jhcPP-19" value="&lt;div&gt;&lt;span style=&quot;background-color: initial;&quot;&gt;The received items are scanned and recorded in an Excel file.&lt;/span&gt;&lt;br&gt;&lt;/div&gt;" style="whiteSpace=wrap;html=1;" vertex="1" parent="1">
          <mxGeometry x="890" y="1495" width="200" height="100" as="geometry" />
        </mxCell>
        <mxCell id="x3u99sOY2GqdWA3jhcPP-24" style="edgeStyle=orthogonalEdgeStyle;rounded=0;orthogonalLoop=1;jettySize=auto;html=1;" edge="1" parent="1" source="x3u99sOY2GqdWA3jhcPP-21" target="x3u99sOY2GqdWA3jhcPP-23">
          <mxGeometry relative="1" as="geometry" />
        </mxCell>
        <mxCell id="x3u99sOY2GqdWA3jhcPP-21" value="The Excel file with scanned item details is sent to JGC" style="whiteSpace=wrap;html=1;" vertex="1" parent="1">
          <mxGeometry x="610.5" y="1690" width="200" height="100" as="geometry" />
        </mxCell>
        <mxCell id="x3u99sOY2GqdWA3jhcPP-32" style="edgeStyle=orthogonalEdgeStyle;rounded=0;orthogonalLoop=1;jettySize=auto;html=1;exitX=0.5;exitY=1;exitDx=0;exitDy=0;" edge="1" parent="1" source="x3u99sOY2GqdWA3jhcPP-23" target="x3u99sOY2GqdWA3jhcPP-25">
          <mxGeometry relative="1" as="geometry" />
        </mxCell>
        <mxCell id="x3u99sOY2GqdWA3jhcPP-23" value="The requestor creates a transaction for the bonded warehouse." style="whiteSpace=wrap;html=1;" vertex="1" parent="1">
          <mxGeometry x="610.5" y="1883" width="200" height="100" as="geometry" />
        </mxCell>
        <mxCell id="x3u99sOY2GqdWA3jhcPP-25" value="END" style="ellipse;whiteSpace=wrap;html=1;" vertex="1" parent="1">
          <mxGeometry x="650" y="2064" width="120" height="80" as="geometry" />
        </mxCell>
        <mxCell id="x3u99sOY2GqdWA3jhcPP-31" style="edgeStyle=orthogonalEdgeStyle;rounded=0;orthogonalLoop=1;jettySize=auto;html=1;exitX=1;exitY=0.5;exitDx=0;exitDy=0;" edge="1" parent="1" source="x3u99sOY2GqdWA3jhcPP-27" target="x3u99sOY2GqdWA3jhcPP-19">
          <mxGeometry relative="1" as="geometry" />
        </mxCell>
        <mxCell id="x3u99sOY2GqdWA3jhcPP-35" value="YES" style="edgeLabel;html=1;align=center;verticalAlign=middle;resizable=0;points=[];" vertex="1" connectable="0" parent="x3u99sOY2GqdWA3jhcPP-31">
          <mxGeometry x="-0.1019" y="-4" relative="1" as="geometry">
            <mxPoint y="-4" as="offset" />
          </mxGeometry>
        </mxCell>
        <mxCell id="x3u99sOY2GqdWA3jhcPP-34" style="edgeStyle=orthogonalEdgeStyle;rounded=0;orthogonalLoop=1;jettySize=auto;html=1;exitX=0;exitY=0.5;exitDx=0;exitDy=0;entryX=0;entryY=0.5;entryDx=0;entryDy=0;" edge="1" parent="1" source="x3u99sOY2GqdWA3jhcPP-27" target="x3u99sOY2GqdWA3jhcPP-21">
          <mxGeometry relative="1" as="geometry">
            <mxPoint x="611" y="1796" as="targetPoint" />
            <Array as="points">
              <mxPoint x="500" y="1545" />
              <mxPoint x="500" y="1740" />
            </Array>
          </mxGeometry>
        </mxCell>
        <mxCell id="x3u99sOY2GqdWA3jhcPP-36" value="NO" style="edgeLabel;html=1;align=center;verticalAlign=middle;resizable=0;points=[];" vertex="1" connectable="0" parent="x3u99sOY2GqdWA3jhcPP-34">
          <mxGeometry x="-0.8703" y="-1" relative="1" as="geometry">
            <mxPoint as="offset" />
          </mxGeometry>
        </mxCell>
        <mxCell id="x3u99sOY2GqdWA3jhcPP-27" value="For To-Manila Bay?" style="rhombus;whiteSpace=wrap;html=1;" vertex="1" parent="1">
          <mxGeometry x="628" y="1462" width="165" height="165" as="geometry" />
        </mxCell>
      </root>
    </mxGraphModel>
  </diagram>
</mxfile>
